<svg width="443" height="76" viewBox="0 0 443 76" fill="none" xmlns="http://www.w3.org/2000/svg">
<path d="M2.83122e-07 75V1.5H10.8C14.9 1.5 18.3167 2.4 21.05 4.2C23.8167 6 25.8833 8.55 27.25 11.85C28.6167 15.15 29.3 19.0333 29.3 23.5C29.3 27.9667 28.5833 31.8167 27.15 35.05C25.7167 38.2833 23.6167 40.8167 20.85 42.65C18.1167 44.45 14.7667 45.4333 10.8 45.6V75H2.83122e-07ZM10.8 34.6C12.7 34.6 14.2 34.2333 15.3 33.5C16.4 32.7333 17.1833 31.5333 17.65 29.9C18.15 28.2667 18.4 26.1667 18.4 23.6C18.4 21 18.15 18.8833 17.65 17.25C17.1833 15.6167 16.3833 14.4167 15.25 13.65C14.15 12.8833 12.6667 12.5 10.8 12.5V34.6ZM49.0563 75.8C46.0563 75.8 43.4729 75.1 41.3063 73.7C39.1729 72.3 37.5229 70.4 36.3563 68C35.2229 65.6 34.6563 62.9 34.6563 59.9V16.6C34.6563 13.5667 35.2229 10.8667 36.3563 8.5C37.5229 6.1 39.1729 4.2 41.3063 2.79999C43.4729 1.4 46.0563 0.699997 49.0563 0.699997C52.0563 0.699997 54.6229 1.4 56.7563 2.79999C58.9229 4.2 60.5729 6.1 61.7063 8.5C62.8729 10.9 63.4563 13.6 63.4563 16.6V59.9C63.4563 62.9 62.8729 65.6 61.7063 68C60.5729 70.4 58.9229 72.3 56.7563 73.7C54.6229 75.1 52.0563 75.8 49.0563 75.8ZM49.0563 65.3C50.3896 65.3 51.3229 64.75 51.8563 63.65C52.3896 62.5167 52.6563 61.2667 52.6563 59.9V16.6C52.6563 15.2333 52.3729 14 51.8063 12.9C51.2396 11.7667 50.3229 11.2 49.0563 11.2C47.8229 11.2 46.9063 11.7667 46.3063 12.9C45.7396 14 45.4563 15.2333 45.4563 16.6V59.9C45.4563 61.2667 45.7396 62.5167 46.3063 63.65C46.8729 64.75 47.7896 65.3 49.0563 65.3ZM83.9961 75.8C81.0294 75.8 78.5628 75.3167 76.5961 74.35C74.6294 73.35 73.0794 71.9167 71.9461 70.05C70.8128 68.1833 69.9961 65.9333 69.4961 63.3C69.0294 60.6667 68.7961 57.7 68.7961 54.4L79.3961 53.4C79.3961 55 79.4461 56.55 79.5461 58.05C79.6794 59.5167 79.8961 60.85 80.1961 62.05C80.5294 63.2167 80.9961 64.15 81.5961 64.85C82.2294 65.55 83.0294 65.9 83.9961 65.9C85.5961 65.9 86.7294 65.1667 87.3961 63.7C88.0628 62.2 88.3961 60.4 88.3961 58.3C88.3961 56.2 87.8461 54.0167 86.7461 51.75C85.6461 49.4833 84.3294 47.3333 82.7961 45.3C80.1961 41.8333 77.9128 38.6167 75.9461 35.65C74.0128 32.6833 72.4961 29.7667 71.3961 26.9C70.3294 24.0333 69.7961 21.0333 69.7961 17.9C69.7961 15.4333 70.1128 13.1667 70.7461 11.1C71.3794 9 72.2961 7.18333 73.4961 5.65C74.7294 4.08333 76.2128 2.86667 77.9461 2C79.6794 1.13333 81.6628 0.699997 83.8961 0.699997C86.6628 0.699997 88.9961 1.16666 90.8961 2.1C92.8294 3.03333 94.3794 4.36666 95.5461 6.1C96.7461 7.83333 97.6128 9.9 98.1461 12.3C98.7128 14.6667 98.9961 17.3 98.9961 20.2L88.3961 21.2C88.3961 19.9667 88.3294 18.7333 88.1961 17.5C88.0961 16.2333 87.8961 15.0833 87.5961 14.05C87.2961 13.0167 86.8628 12.1833 86.2961 11.55C85.7294 10.9167 84.9961 10.6 84.0961 10.6C82.6961 10.6 81.7294 11.2 81.1961 12.4C80.6628 13.5667 80.3961 15.2333 80.3961 17.4C80.3961 20.2 81.1461 22.9 82.6461 25.5C84.1461 28.1 86.1628 31.1333 88.6961 34.6C91.7294 38.7 94.1961 42.4667 96.0961 45.9C98.0294 49.3333 98.9961 53.1333 98.9961 57.3C98.9961 59.9333 98.7128 62.3833 98.1461 64.65C97.5794 66.8833 96.6794 68.8333 95.4461 70.5C94.2461 72.1667 92.6961 73.4667 90.7961 74.4C88.9294 75.3333 86.6628 75.8 83.9961 75.8ZM104.785 75V1.5H115.585V75H104.785ZM130.833 75V12.6H120.633V1.5H151.833V12.6H141.633V75H130.833ZM156.836 75V1.5H167.636V75H156.836ZM184.384 75L173.184 1.5H183.684L189.084 44.9L189.484 52H190.084L190.484 44.9L195.884 1.5H206.384L195.184 75H184.384ZM211.914 75V1.5H236.614V12.6H222.714V32.4H232.714V43.2H222.714V63.9H236.614V75H211.914Z" fill="#777887"/>
<path d="M244.629 75V1.5H255.429V31.9H263.829V1.5H274.629V75H263.829V43H255.429V75H244.629ZM282.617 75V1.5H307.317V12.6H293.417V32.4H303.417V43.2H293.417V63.9H307.317V75H282.617ZM313.277 75L324.377 1.5H337.577L348.677 75H338.177L336.177 60H325.777L323.777 75H313.277ZM327.277 48.6H334.677L331.577 23.9L331.277 20H330.677L330.377 23.9L327.277 48.6ZM354.395 75V1.5H365.195V65H379.495V75H354.395ZM386.106 75V12.6H375.906V1.5H407.106V12.6H396.906V75H386.106ZM412.109 75V1.5H422.909V31.9H431.309V1.5H442.109V75H431.309V43H422.909V75H412.109Z" fill="#79969B"/>
</svg>
