<svg width="66" height="74" viewBox="0 0 66 74" fill="none" xmlns="http://www.w3.org/2000/svg">
<path d="M2.83122e-07 74V0.499999H10.8C14.9 0.499999 18.3167 1.4 21.05 3.2C23.8167 5 25.8833 7.55 27.25 10.85C28.6167 14.15 29.3 18.0333 29.3 22.5C29.3 26.9667 28.5833 30.8167 27.15 34.05C25.7167 37.2833 23.6167 39.8167 20.85 41.65C18.1167 43.45 14.7667 44.4333 10.8 44.6V74H2.83122e-07ZM10.8 33.6C12.7 33.6 14.2 33.2333 15.3 32.5C16.4 31.7333 17.1833 30.5333 17.65 28.9C18.15 27.2667 18.4 25.1667 18.4 22.6C18.4 20 18.15 17.8833 17.65 16.25C17.1833 14.6167 16.3833 13.4167 15.25 12.65C14.15 11.8833 12.6667 11.5 10.8 11.5V33.6Z" fill="#F5F5F5"/>
<path d="M35.1563 74V0.499999H45.9563V30.9H54.3563V0.499999H65.1563V74H54.3563V42H45.9563V74H35.1563Z" fill="#EAEFC8"/>
</svg>
